<svg width="200" height="60" viewBox="0 0 200 60" fill="none" xmlns="http://www.w3.org/2000/svg">
  <!-- Blue circle -->
  <circle cx="20" cy="30" r="15" fill="#394694"/>
  
  <!-- TUFDNI text -->
  <path d="M45 15H55V20H52V45H48V20H45V15Z" fill="#0A1158"/>
  <path d="M60 15H70V20C70 30 70 40 60 40V45H70V50H60C55 50 55 45 55 40V20H60V15Z" fill="#0A1158"/>
  <path d="M75 15H85V45H95V50H75V15Z" fill="#0A1158"/>
  <path d="M100 15H110C115 15 115 20 115 25V40C115 45 115 50 110 50H100V15ZM105 20V45H110C112 45 110 40 110 40V25C110 23 112 20 110 20H105Z" fill="#0A1158"/>
  <path d="M120 15H130V40H135L135 50H120V15Z" fill="#0A1158"/>
  <path d="M140 15H150V50H140V15Z" fill="#0A1158"/>
</svg> 